# xmcd CD database file
#
# Track frame offsets:
#	150
#	19277
#	44237
#	62002
#	77620
#	95010
#	113240
#	129790
#	139907
#	160277
#	175640
#	193175
#	205755
#	224325
#
# Disc length: 3231 seconds
#
# Revision: 0
# Processed by: cddbd v1.5.1PL0 Copyright (c) Steve Scherf et al.
# Submitted via: CDex 1.51
#
DISCID=ca0c9d0e
DTITLE=天山 - 宙（そら）〜心に宙のある限り
DYEAR=2002
DGENRE=Easy Listening
TTITLE0=美少年には神が宿る
TTITLE1=やさしく生きて そして 愛して
TTITLE2=ヒマラヤ杉のてっぺんで
TTITLE3=UFO詩人
TTITLE4=空とぶ羊の群れ
TTITLE5=茜いろした〜やさしく生きて そして 愛して
TTITLE6=水の琴
TTITLE7=寝そべりて寝そべりて見る日と月と
TTITLE8=水たまりの中の宇宙
TTITLE9=銀河のスパンコール
TTITLE10=月の子どもたち
TTITLE11=星祭〜やさしく生きて そして 愛して
TTITLE12=山の音
TTITLE13=宙のひと
EXTD=YEAR: 2002
EXTT0=
EXTT1=
EXTT2=
EXTT3=
EXTT4=
EXTT5=
EXTT6=
EXTT7=
EXTT8=
EXTT9=
EXTT10=
EXTT11=
EXTT12=
EXTT13=
PLAYORDER=
